<svg width="56" height="64" viewBox="0 0 56 64" fill="none" xmlns="http://www.w3.org/2000/svg">
    <path
        d="M51.9465 43.8642C51.9465 60.4858 51.2439 63.9993 26.379 63.9993C1.51408 63.9993 0.757324 60.4858 0.757324 43.8642C0.757324 27.2426 1.51407 24.1074 26.379 24.1074C51.2439 24.1074 51.9465 27.2426 51.9465 43.8642Z"
        fill="#29A9E2" />
    <mask id="mask0_5495_1130" style="mask-type:alpha" maskUnits="userSpaceOnUse" x="0" y="24" width="52" height="40">
        <path
            d="M51.9463 43.8642C51.9463 60.4858 51.2436 63.9993 26.3787 63.9993C1.51384 63.9993 0.75708 60.4858 0.75708 43.8642C0.75708 27.2426 1.51383 24.1074 26.3787 24.1074C51.2436 24.1074 51.9463 27.2426 51.9463 43.8642Z"
            fill="#29AAE3" />
    </mask>
    <g mask="url(#mask0_5495_1130)">
        <path
            d="M52.5139 36.0258L50.541 29.8096L48.4599 26.7826L44.9464 25.7285C44.9464 25.7285 43.0274 25.8907 40.9734 26.1069C40.1263 26.1961 39.5366 26.3082 39.136 26.4092C38.8529 26.4806 38.8805 26.7751 39.166 26.8363C40.2659 27.0722 42.2563 27.5359 43.4058 28.0258C45.0545 28.7285 45.3247 28.9988 46.2707 30.0528C47.2166 31.1069 47.6761 32.7826 47.8382 33.8096C47.9181 34.3156 48.541 37.8096 48.9193 42.6204C49.2977 47.4312 49.4599 48.5123 48.622 53.5394C47.7842 58.5664 45.0545 62.1069 45.0545 62.1069L48.8112 60.7285L51.2166 57.0529L52.2707 49.7556L52.5139 36.0258Z"
            fill="#118BD4" />
        <path
            d="M2.48678 55.7828C2.51381 56.7287 2.75705 58.3774 2.75705 58.3774L0.108398 56.6206L0.784075 40.1611C0.784075 40.1611 1.08137 44.6206 1.91921 47.026C2.75705 49.4314 6.1084 54.3233 6.1084 54.3233L4.73002 53.7287C4.73002 53.7287 3.75705 53.3774 3.27056 53.7287C2.78408 54.0801 2.45975 54.8368 2.48678 55.7828Z"
            fill="#118BD4" />
        <path
            d="M15.811 26.4043C16.6559 26.5733 16.6671 26.426 16.9423 26.3669C16.9867 26.3574 17.0164 26.4057 16.9901 26.4428C16.8344 26.6625 16.4239 27.2115 16.0813 27.4043C15.6489 27.6475 14.9191 27.8367 14.1894 27.5394C13.4597 27.2421 11.9732 25.8975 10.9732 25.6475C9.97317 25.3975 7.89209 25.6475 7.89209 25.6475L12.8651 24.4854C13.3065 24.8908 14.8651 26.2151 15.811 26.4043Z"
            fill="#118BD4" />
    </g>
    <path
        d="M9.91953 55.2706C7.37899 55.1496 6.05467 54.3247 5.56818 54.0544C5.08169 53.7841 3.10872 52.8652 3.10872 52.8652L1.35196 50.0544L1.13574 45.9463L3.29791 49.8652L6.1898 52.676L11.379 53.8922L16.0276 52.8652L19.9195 50.9733C19.9195 50.9733 19.5141 51.8652 18.4331 52.8112C17.352 53.7571 15.5141 54.489 14.6493 54.8112C13.7844 55.1334 12.4601 55.3916 9.91953 55.2706Z"
        fill="#118BD4" />
    <path
        d="M32.6224 51.8379C32.1088 50.8919 31.8115 49.4054 31.8115 49.4054C33.1539 50.1352 36.4332 52.1946 36.9737 52.3244C37.5143 52.4541 40.28 52.955 41.5953 53.1892C43.3341 52.7388 46.8494 51.8379 47.0008 51.8379C47.1521 51.8379 49.4062 48.5586 50.5143 46.9189L50.3521 51.3514C50.3521 51.3514 49.5683 52.8108 49.0007 53.2703C48.4332 53.7298 46.5142 54.8108 45.1088 55.1081C43.7034 55.4054 42.9467 55.5135 41.4061 55.4865C39.8656 55.4595 39.1899 55.3514 37.7305 55.0541C36.271 54.7568 35.0277 54 34.5953 53.7838C34.1629 53.5676 33.1359 52.7838 32.6224 51.8379Z"
        fill="#118BD4" />
    <path fill-rule="evenodd" clip-rule="evenodd"
        d="M30.3232 42.8304C27.7626 41.6823 24.8336 41.6823 22.273 42.8304L21.1672 40.3642C24.4313 38.9007 28.1649 38.9007 31.429 40.3642L30.3232 42.8304Z"
        fill="#003F7D" />
    <path
        d="M51.0404 42.4611C49.6036 50.2451 46.5122 52.6766 41.1406 52.6766C34.6196 52.4556 31.1934 49.3767 30.7671 42.9505C30.7671 37.5789 33.6091 33.5244 41.8827 33.9191C47.2482 34.1751 51.9176 37.7085 51.0404 42.4611Z"
        fill="#FFFAE8" />
    <path fill-rule="evenodd" clip-rule="evenodd"
        d="M32.1185 42.9057C32.323 45.8758 33.2019 47.8638 34.5876 49.1496C35.9866 50.4478 38.1035 51.2178 41.1634 51.325C43.6316 51.3216 45.3443 50.7645 46.6234 49.5193C47.9521 48.2258 49.013 45.9997 49.7115 42.2154C50.0481 40.3919 49.3516 38.7772 47.9137 37.5214C46.4486 36.2419 44.2446 35.3844 41.8183 35.2686C37.8886 35.0811 35.5277 35.9631 34.1466 37.258C32.7769 38.5421 32.1263 40.4621 32.1185 42.9057ZM32.2981 35.2863C34.4064 33.3097 37.6033 32.3618 41.9471 32.569C44.8862 32.7092 47.6998 33.7464 49.6915 35.4857C51.7103 37.2488 52.91 39.7771 52.3693 42.706C51.631 46.7058 50.4278 49.5876 48.5087 51.4558C46.5439 53.3686 44.0318 54.0277 41.1406 54.0277H41.1177L41.0948 54.0269C37.6462 53.91 34.7966 53.0306 32.7492 51.1308C30.6919 49.2218 29.6464 46.4708 29.4187 43.0397L29.4158 42.995V42.9502C29.4158 40.0434 30.1867 37.2659 32.2981 35.2863Z"
        fill="#003F7D" />
    <path fill-rule="evenodd" clip-rule="evenodd"
        d="M37.6089 43.5843C37.609 43.5842 37.6091 43.5842 37.3826 43.0286C37.156 42.473 37.1562 42.473 37.1563 42.4729L37.1573 42.4725L37.1592 42.4717L37.1648 42.4695C37.1692 42.4677 37.1753 42.4653 37.1828 42.4624C37.1979 42.4565 37.2191 42.4483 37.2459 42.4384C37.2993 42.4184 37.3754 42.3911 37.4704 42.3597C37.66 42.2968 37.9274 42.2166 38.2434 42.1453C38.8643 42.0052 39.722 41.8883 40.556 42.0441C41.3944 42.2007 42.1469 42.629 42.6691 42.9918C42.9348 43.1764 43.1519 43.3519 43.3035 43.482C43.3794 43.5472 43.4394 43.6014 43.4814 43.6403C43.5024 43.6597 43.5189 43.6754 43.5307 43.6866C43.5365 43.6923 43.5412 43.6968 43.5447 43.7002L43.5491 43.7045L43.5505 43.7059L43.5513 43.7067C43.5515 43.7068 43.5516 43.7069 43.13 44.1339C42.7085 44.5608 42.7086 44.5609 42.7087 44.561L42.708 44.5604C42.7067 44.5591 42.7043 44.5567 42.7007 44.5533C42.6935 44.5464 42.6818 44.5353 42.6658 44.5206C42.634 44.491 42.5853 44.447 42.5219 44.3925C42.3946 44.2833 42.21 44.1341 41.9844 43.9773C41.5236 43.6571 40.934 43.3355 40.3356 43.2237C39.7328 43.1111 39.0589 43.1915 38.5074 43.3159C38.2372 43.3768 38.0082 43.4456 37.8479 43.4987C37.768 43.5252 37.7058 43.5476 37.6647 43.5629C37.6442 43.5706 37.629 43.5764 37.6195 43.5801C37.6148 43.5819 37.6116 43.5832 37.6098 43.5839L37.6084 43.5845L37.6089 43.5843Z"
        fill="black" />
    <path
        d="M43.73 44.1342C43.73 44.4655 43.4614 44.7342 43.13 44.7342C42.7987 44.7342 42.53 44.4655 42.53 44.1342C42.53 43.8028 42.7987 43.5342 43.13 43.5342C43.4614 43.5342 43.73 43.8028 43.73 44.1342Z"
        fill="black" />
    <path
        d="M37.9512 43.0601C37.9512 43.3915 37.6668 43.6443 37.3354 43.6443C37.0041 43.6443 36.7512 43.3915 36.7512 43.0601C36.7512 42.7287 37.0041 42.4443 37.3354 42.4443C37.6668 42.4443 37.9512 42.7287 37.9512 43.0601Z"
        fill="black" />
    <path
        d="M1.45864 42.4611C2.89546 50.2451 5.98686 52.6766 11.3585 52.6766C17.8794 52.4556 21.3056 49.3767 21.7319 42.9505C21.7319 37.5789 18.8899 33.5244 10.6164 33.9191C5.25087 34.1751 0.581399 37.7085 1.45864 42.4611Z"
        fill="#FFFAE8" />
    <path fill-rule="evenodd" clip-rule="evenodd"
        d="M20.3805 42.9057C20.176 45.8758 19.2971 47.8638 17.9115 49.1496C16.5125 50.4478 14.3955 51.2178 11.3356 51.325C8.86746 51.3216 7.15471 50.7645 5.87561 49.5193C4.54694 48.2258 3.48603 45.9997 2.78751 42.2154C2.45091 40.3919 3.14738 38.7772 4.58534 37.5214C6.05045 36.2419 8.25438 35.3844 10.6807 35.2686C14.6104 35.0811 16.9713 35.9631 18.3524 37.258C19.7221 38.5421 20.3727 40.4621 20.3805 42.9057ZM20.201 35.2863C18.0927 33.3097 14.8957 32.3618 10.5519 32.569C7.61278 32.7092 4.79924 33.7464 2.80755 35.4857C0.788705 37.2488 -0.410938 39.7771 0.129707 42.706C0.868003 46.7058 2.07121 49.5876 3.99033 51.4558C5.9551 53.3686 8.46725 54.0277 11.3584 54.0277H11.3813L11.4042 54.0269C14.8529 53.91 17.7024 53.0306 19.7498 51.1308C21.8071 49.2218 22.8527 46.4708 23.0803 43.0397L23.0833 42.995V42.9502C23.0833 40.0434 22.3124 37.2659 20.201 35.2863Z"
        fill="#003F7D" />
    <path fill-rule="evenodd" clip-rule="evenodd"
        d="M14.8899 43.5843C14.8898 43.5842 14.8897 43.5842 15.1162 43.0286C15.3427 42.473 15.3426 42.473 15.3425 42.4729L15.3415 42.4725L15.3396 42.4717L15.334 42.4695C15.3295 42.4677 15.3235 42.4653 15.3159 42.4624C15.3008 42.4565 15.2797 42.4483 15.2529 42.4384C15.1994 42.4184 15.1234 42.3911 15.0284 42.3597C14.8388 42.2968 14.5714 42.2166 14.2554 42.1453C13.6345 42.0052 12.7768 41.8883 11.9428 42.0441C11.1044 42.2007 10.3518 42.629 9.82973 42.9918C9.56396 43.1764 9.34688 43.3519 9.19533 43.482C9.11936 43.5472 9.05936 43.6014 9.0174 43.6403C8.99641 43.6597 8.9799 43.6754 8.96813 43.6866C8.96224 43.6923 8.95753 43.6968 8.95404 43.7002L8.94971 43.7045L8.94823 43.7059L8.94743 43.7067C8.94733 43.7068 8.94722 43.7069 9.36876 44.1339C9.79031 44.5608 9.79021 44.5609 9.79013 44.561L9.79074 44.5604C9.79205 44.5591 9.79452 44.5567 9.79812 44.5533C9.80532 44.5464 9.81701 44.5353 9.83294 44.5206C9.86481 44.491 9.91349 44.447 9.97692 44.3925C10.1042 44.2833 10.2887 44.1341 10.5144 43.9773C10.9752 43.6571 11.5647 43.3355 12.1632 43.2237C12.766 43.1111 13.4399 43.1915 13.9914 43.3159C14.2616 43.3768 14.4906 43.4456 14.6509 43.4987C14.7308 43.5252 14.793 43.5476 14.8341 43.5629C14.8546 43.5706 14.8698 43.5764 14.8792 43.5801C14.8839 43.5819 14.8872 43.5832 14.889 43.5839L14.8904 43.5845L14.8899 43.5843Z"
        fill="black" />
    <path
        d="M8.76877 44.1342C8.76877 44.4655 9.0374 44.7342 9.36876 44.7342C9.70013 44.7342 9.96875 44.4655 9.96875 44.1342C9.96875 43.8028 9.70013 43.5342 9.36876 43.5342C9.0374 43.5342 8.76877 43.8028 8.76877 44.1342Z"
        fill="black" />
    <path
        d="M14.5476 43.0601C14.5476 43.3915 14.832 43.6443 15.1634 43.6443C15.4947 43.6443 15.7476 43.3915 15.7476 43.0601C15.7476 42.7287 15.4947 42.4443 15.1634 42.4443C14.832 42.4443 14.5476 42.7287 14.5476 43.0601Z"
        fill="black" />
    <path fill-rule="evenodd" clip-rule="evenodd"
        d="M29.5312 57.2975C29.2863 57.5613 28.9271 57.904 28.5283 58.1179C27.8371 58.4889 27.2998 58.7059 26.4567 58.8113C25.6572 58.9113 25.0078 58.9474 24.0261 58.7407C23.5362 58.6376 23.1538 58.4976 22.8505 58.308C22.5392 58.1135 22.3318 57.8796 22.1772 57.6219L23.0004 57.128C23.0859 57.2704 23.1905 57.3885 23.3593 57.4939C23.536 57.6044 23.8016 57.7124 24.2239 57.8013C25.0663 57.9787 25.6011 57.9508 26.3377 57.8587C27.0308 57.7721 27.4536 57.6052 28.0744 57.272C28.3318 57.1339 28.6046 56.8846 28.8277 56.6443C28.9355 56.5282 29.0246 56.4221 29.0864 56.3453C29.1172 56.307 29.141 56.2764 29.1567 56.2559C29.1645 56.2456 29.1703 56.238 29.1739 56.2331C29.1757 56.2307 29.1769 56.229 29.1776 56.2281L29.178 56.2275C29.178 56.2276 29.178 56.2276 29.5655 56.5109C29.9531 56.7941 29.953 56.7941 29.953 56.7942L29.9529 56.7943L29.9526 56.7947L29.9519 56.7956L29.9499 56.7984C29.9482 56.8006 29.946 56.8037 29.9432 56.8074C29.9375 56.815 29.9296 56.8255 29.9195 56.8387C29.8994 56.8651 29.8705 56.9022 29.8341 56.9474C29.7614 57.0377 29.6575 57.1615 29.5312 57.2975Z"
        fill="black" />
    <path
        d="M23.069 57.3756C23.069 57.6407 22.8541 57.8556 22.5889 57.8556C22.3238 57.8556 22.1089 57.6407 22.1089 57.3756C22.1089 57.1104 22.3238 56.8955 22.5889 56.8955C22.8541 56.8955 23.069 57.1104 23.069 57.3756Z"
        fill="black" />
    <path
        d="M30.9738 57.0552C30.9738 57.3204 30.7588 57.5353 30.4937 57.5353C30.2286 57.5353 30.0137 57.3204 30.0137 57.0552C30.0137 56.7901 30.2286 56.5752 30.4937 56.5752C30.7588 56.5752 30.9738 56.7901 30.9738 57.0552Z"
        fill="black" />
    <path
        d="M29.8536 55.1832C29.8536 55.4483 29.6387 55.6632 29.3736 55.6632C29.1085 55.6632 28.8936 55.4163 28.8936 55.1512C28.8936 54.886 29.1085 54.7031 29.3736 54.7031C29.6387 54.7031 29.8536 54.918 29.8536 55.1832Z"
        fill="black" />
    <path fill-rule="evenodd" clip-rule="evenodd"
        d="M28.9009 55.0684C28.9009 55.0683 28.901 55.0681 29.3737 55.1514C29.8464 55.2347 29.8464 55.2346 29.8464 55.2345L29.8465 55.2339L29.8466 55.2335C29.8467 55.2332 29.8467 55.2332 29.8467 55.2333L29.8462 55.2361C29.8457 55.2394 29.8448 55.2453 29.8436 55.2536C29.8412 55.2704 29.8378 55.2965 29.8344 55.3302C29.8275 55.3982 29.8209 55.4937 29.8222 55.6017C29.825 55.8326 29.8632 56.056 29.9504 56.2042C30.0287 56.3374 30.1683 56.4353 30.325 56.5023C30.3996 56.5342 30.4681 56.5548 30.517 56.567C30.5411 56.5731 30.5595 56.5769 30.5704 56.579C30.5759 56.58 30.5794 56.5806 30.5807 56.5809C30.5809 56.5809 30.5811 56.5809 30.5812 56.5809C30.5813 56.581 30.5812 56.5809 30.5809 56.5809L30.5797 56.5807L30.5788 56.5806L30.578 56.5805C30.5778 56.5804 30.5777 56.5804 30.5098 57.0556C30.4419 57.5308 30.4417 57.5307 30.4416 57.5307L30.4412 57.5307L30.4405 57.5306L30.4388 57.5303L30.4348 57.5297C30.4317 57.5292 30.428 57.5287 30.4237 57.5279C30.415 57.5265 30.4037 57.5245 30.3902 57.5219C30.3632 57.5168 30.3268 57.5091 30.2832 57.4981C30.1966 57.4764 30.0783 57.4409 29.9473 57.3849C29.6926 57.2759 29.3457 57.0697 29.1229 56.6908C28.909 56.3271 28.8657 55.9024 28.8623 55.6132C28.8605 55.4612 28.8696 55.3287 28.8792 55.2336C28.8841 55.1858 28.8891 55.1467 28.8931 55.1186C28.8951 55.1045 28.8969 55.093 28.8982 55.0846C28.8989 55.0803 28.8995 55.0768 28.8999 55.0741L28.9006 55.0705L28.9008 55.0692L28.9009 55.0684Z"
        fill="black" />
    <path
        d="M42.4611 25.9718C41.5422 25.8367 39.4611 25.0529 39.5152 24.6205C39.5692 24.1881 41.1368 18.8097 41.6503 17.4854C42.1638 16.161 43.7044 12.4313 44.272 11.2962C44.8395 10.161 45.7585 9.24211 45.8666 8.91778C45.9747 8.59345 45.5152 7.99886 45.3801 7.64751C45.245 7.29616 45.1909 6.94481 45.1639 6.40427C45.1368 5.86372 45.1368 5.40426 45.4612 4.5394C45.7855 3.67453 46.0558 3.2421 46.3801 2.80967C46.7044 2.37723 47.1909 1.75561 47.9477 1.21507C48.7044 0.67453 49.1909 0.377232 50.2179 0.296151C51.245 0.21507 51.8396 0.323177 52.5693 0.566422C53.299 0.809667 53.7778 1.21507 54.245 1.80967C54.7121 2.40426 55.1369 3.16102 55.326 3.8367C55.5152 4.51237 55.4882 5.16102 55.4071 5.91778C55.326 6.67454 54.9747 7.37724 54.6774 7.94481C54.3801 8.51237 54.0287 8.97183 53.1098 9.67454C52.1909 10.3772 50.8666 10.4043 50.5693 10.6205C50.272 10.8367 48.326 13.7286 47.5693 15.5124C46.8125 17.2962 46.4341 18.6475 45.7855 20.4043C45.1368 22.161 44.7314 25.8908 44.7314 25.8908C44.7314 25.8908 43.3801 26.107 42.4611 25.9718Z"
        fill="#29A9E2" />
    <mask id="mask1_5495_1130" style="mask-type:alpha" maskUnits="userSpaceOnUse" x="39" y="0" width="17" height="27">
        <path
            d="M42.4611 25.9718C41.5422 25.8367 39.4611 25.0529 39.5152 24.6205C39.5692 24.1881 41.1368 18.8097 41.6503 17.4854C42.1638 16.161 43.7044 12.4313 44.272 11.2962C44.8395 10.161 45.7585 9.24211 45.8666 8.91778C45.9747 8.59345 45.5152 7.99886 45.3801 7.64751C45.245 7.29616 45.1909 6.94481 45.1639 6.40427C45.1368 5.86372 45.1368 5.40426 45.4612 4.5394C45.7855 3.67453 46.0558 3.2421 46.3801 2.80967C46.7044 2.37723 47.1909 1.75561 47.9477 1.21507C48.7044 0.67453 49.1909 0.377232 50.2179 0.296151C51.245 0.21507 51.8396 0.323177 52.5693 0.566422C53.299 0.809667 53.7778 1.21507 54.245 1.80967C54.7121 2.40426 55.1369 3.16102 55.326 3.8367C55.5152 4.51237 55.4882 5.16102 55.4071 5.91778C55.326 6.67454 54.9747 7.37724 54.6774 7.94481C54.3801 8.51237 54.0287 8.97183 53.1098 9.67454C52.1909 10.3772 50.8666 10.4043 50.5693 10.6205C50.272 10.8367 48.326 13.7286 47.5693 15.5124C46.8125 17.2962 46.4341 18.6475 45.7855 20.4043C45.1368 22.161 44.7314 25.8908 44.7314 25.8908C44.7314 25.8908 43.3801 26.107 42.4611 25.9718Z"
            fill="#29AAE3" />
    </mask>
    <g mask="url(#mask1_5495_1130)">
        <path
            d="M48.4072 5.48476C48.1826 5.26017 48.0487 4.89301 47.9877 4.68844C47.973 4.63938 48.0314 4.59979 48.0747 4.62711C48.297 4.76735 48.7995 5.0253 49.4883 5.0253C50.4342 5.0253 50.5694 4.67395 50.6775 4.3226C50.7609 4.0515 50.7156 3.41029 50.6905 3.13154C50.6862 3.08305 50.742 3.05439 50.7777 3.08749C50.9304 3.2291 51.2178 3.51909 51.3532 3.80909C51.5423 4.21449 51.4342 5.07936 50.8667 5.53882C50.2991 5.99828 49.8667 5.99828 49.4883 5.97125C49.1099 5.94422 48.7315 5.80909 48.4072 5.48476Z"
            fill="#118BD4" />
        <path
            d="M55.7314 3.51264L54.1639 1.6748C54.1639 1.6748 54.3801 3.21535 54.3531 3.59373C54.326 3.9721 54.1368 4.67481 53.9747 5.18832C53.8125 5.70184 53.3801 6.75589 52.6504 7.37751C51.9206 7.99914 51.1639 8.48562 50.7855 8.62076C50.4071 8.75589 50.0828 8.864 49.1098 8.864C48.3116 8.864 47.0768 8.60933 46.659 8.51785C46.6098 8.50707 46.5705 8.56568 46.5973 8.60834C46.721 8.80473 46.9619 9.23286 47.1639 9.864C47.4493 10.7559 45.4882 16.0262 45.4882 16.0262C45.4882 16.0262 42.9747 22.3775 42.7044 24.0802C42.4341 25.7829 42.4882 25.891 42.4882 25.891L42.272 26.5397C43.0287 26.5577 44.5639 26.5829 44.6504 26.5397C44.7368 26.4965 45.1729 26.0892 45.3801 25.891L45.5693 24.1883C45.9206 22.6928 46.6341 19.691 46.6774 19.6478C46.7206 19.6046 47.8125 16.9991 48.3531 15.7018L50.8936 11.2964C51.317 11.1793 52.2125 10.9451 52.4071 10.9451C52.6504 10.9451 55.1098 9.21535 55.272 9.13427C55.4017 9.06941 55.9387 7.19733 56.1909 6.2694L55.7314 3.51264Z"
            fill="#118BD4" />
    </g>
    <path
        d="M15.0356 26.0811C13.9005 26.3243 11.6302 25.6757 11.6302 25.6757C11.6302 25.6757 11.441 22.1081 10.8194 18.946C10.2596 16.0982 8.60376 11.3434 8.28005 10.426C8.24724 10.3331 8.15661 10.2762 8.05813 10.2803C7.76813 10.2924 7.15419 10.2942 6.65721 10.1351C5.98151 9.91893 5.22478 9.2973 5.03559 9.13514C4.8464 8.97298 4.19778 8.32433 3.92751 6.75676C3.65724 5.18919 4.06264 4.16217 4.33291 3.35135C4.60318 2.54054 5.25183 1.56757 6.35994 0.837838C7.46805 0.108107 8.65726 0 9.87346 0C11.0897 0 11.387 0.162162 12.0626 0.621622C12.7383 1.08108 13.3059 1.54054 13.7113 2.32433C14.1167 3.10811 14.3059 3.75676 14.2248 4.67568C14.1437 5.5946 13.9816 6.45946 13.4681 7.16217C13.1526 7.59388 12.8473 7.84197 12.6588 7.96912C12.558 8.03705 12.5102 8.17043 12.5614 8.28063C12.9649 9.14971 14.5694 12.6747 15.2518 15.2162C16.0356 18.1351 17.1978 24.4325 17.1978 24.4325C17.1978 24.4325 16.1707 25.8379 15.0356 26.0811Z"
        fill="#29A9E2" />
    <mask id="mask2_5495_1130" style="mask-type:alpha" maskUnits="userSpaceOnUse" x="3" y="0" width="15" height="27">
        <path
            d="M15.0356 26.0811C13.9005 26.3243 11.6302 25.6757 11.6302 25.6757C11.6302 25.6757 11.441 22.1081 10.8194 18.946C10.2596 16.0982 8.60376 11.3434 8.28005 10.426C8.24724 10.3331 8.15661 10.2762 8.05813 10.2803C7.76813 10.2924 7.15419 10.2942 6.65721 10.1351C5.98151 9.91893 5.22478 9.2973 5.03559 9.13514C4.8464 8.97298 4.19778 8.32433 3.92751 6.75676C3.65724 5.18919 4.06264 4.16217 4.33291 3.35135C4.60318 2.54054 5.25183 1.56757 6.35994 0.837838C7.46805 0.108107 8.65726 0 9.87346 0C11.0897 0 11.387 0.162162 12.0626 0.621622C12.7383 1.08108 13.3059 1.54054 13.7113 2.32433C14.1167 3.10811 14.3059 3.75676 14.2248 4.67568C14.1437 5.5946 13.9816 6.45946 13.4681 7.16217C13.1526 7.59388 12.8473 7.84197 12.6588 7.96912C12.558 8.03705 12.5102 8.17043 12.5614 8.28063C12.9649 9.14971 14.5694 12.6747 15.2518 15.2162C16.0356 18.1351 17.1978 24.4325 17.1978 24.4325C17.1978 24.4325 16.1707 25.8379 15.0356 26.0811Z"
            fill="#29AAE3" />
    </mask>
    <g mask="url(#mask2_5495_1130)">
        <path
            d="M7.76531 3.67547C7.48722 3.56851 7.15836 3.15678 7.03331 2.98974C7.00912 2.95743 6.95813 2.96054 6.93424 2.99308C6.78788 3.19245 6.55476 3.31114 6.60318 3.89169C6.65729 4.54034 7.25183 5.02682 7.76531 5.16196C8.31663 5.30705 8.95458 5.21601 9.44107 5.05385C9.92755 4.89169 10.6573 4.24304 10.7924 3.72952C10.895 3.33951 10.8573 2.87155 10.8333 2.66901C10.8281 2.62577 10.777 2.60883 10.7466 2.64002C10.4983 2.89484 10.2392 3.22364 9.98158 3.37817C9.71126 3.54033 9.22477 3.72952 8.9005 3.75655C8.57622 3.78358 8.11666 3.8106 7.76531 3.67547Z"
            fill="#118BD4" />
        <path
            d="M4.41393 10.0813L3.81934 6.35156C4.21573 6.94616 4.14366 7.43264 5.11663 8.1894C6.08961 8.94616 7.38691 8.72994 8.14366 8.62184C8.50597 8.57008 9.51758 8.2848 10.3329 7.81102C10.9199 7.4512 11.4539 7.05156 11.721 6.84458C11.7661 6.80963 11.8323 6.85998 11.8104 6.91263C11.6253 7.35594 11.1969 8.44677 10.9275 9.64886C10.5761 11.2164 11.9815 14.3245 12.8193 17.784C13.6572 21.2435 13.9545 23.5948 14.3599 24.5408C14.7653 25.4867 15.1977 26.4597 15.1977 26.4597L11.5491 26.2705L11.0626 25.2164L7.60312 13.1083L4.41393 10.0813Z"
            fill="#118BD4" />
    </g>
</svg>