<svg width="180" height="52" viewBox="0 0 180 52" fill="none" xmlns="http://www.w3.org/2000/svg">
<path d="M33.6789 36.4803C33.6789 38.3405 32.1709 39.8485 30.3107 39.8485H9.43423C8.8139 39.8485 8.14187 39.7794 7.41815 39.6413C6.71166 39.4858 6.00517 39.2526 5.29868 38.9417C4.60942 38.6308 3.94601 38.2335 3.30844 37.7499C2.67088 37.249 2.10224 36.653 1.60253 35.9621C1.12005 35.2539 0.732338 34.4421 0.439403 33.5267C0.146468 32.5939 0 31.5489 0 30.3916V12.1515C0 11.5296 0.0689259 10.8646 0.206778 10.1565C0.361861 9.43099 0.594486 8.7228 0.904652 8.03189C1.21482 7.3237 1.61976 6.65006 2.11947 6.01096C2.61918 5.37187 3.21367 4.8105 3.90293 4.32686C4.60942 3.82594 5.4193 3.42867 6.33257 3.13503C7.24584 2.84139 8.27972 2.69457 9.43423 2.69457H30.3107C32.1709 2.69457 33.6789 4.20257 33.6789 6.06278V6.06278C33.6789 7.92299 32.1709 9.43099 30.3107 9.43099H9.43423C8.55543 9.43099 7.8834 9.66418 7.41815 10.1305C6.9529 10.5969 6.72028 11.2878 6.72028 12.2033V30.3916C6.72028 31.2553 6.9529 31.9289 7.41815 32.4126C7.90063 32.8789 8.57266 33.1121 9.43423 33.1121H30.3107C32.1709 33.1121 33.6789 34.6201 33.6789 36.4803V36.4803Z" fill="#29ABE2"/>
<path d="M69.3222 30.3916C69.3222 31.5489 69.1758 32.5939 68.8828 33.5267C68.5899 34.4421 68.2022 35.2539 67.7197 35.9621C67.2372 36.653 66.6772 37.249 66.0396 37.7499C65.4021 38.2335 64.73 38.6308 64.0235 38.9417C63.3343 39.2526 62.6278 39.4858 61.9041 39.6413C61.1976 39.7794 60.5256 39.8485 59.888 39.8485H47.7657C46.8352 39.8485 45.8185 39.6844 44.7157 39.3563C43.6129 39.0281 42.5876 38.4926 41.6399 37.7499C40.7094 36.9899 39.9253 36.014 39.2878 34.8221C38.6674 33.613 38.3573 32.1362 38.3573 30.3916V21.2715C38.3573 19.5443 38.6674 18.0847 39.2878 16.8929C39.9253 15.6838 40.7094 14.7079 41.6399 13.9651C42.5876 13.2051 43.6129 12.661 44.7157 12.3328C45.8185 12.0047 46.8352 11.8406 47.7657 11.8406H59.888C61.6111 11.8406 63.0758 12.1515 64.282 12.7733C65.4882 13.3951 66.4618 14.181 67.2028 15.131C67.9437 16.0638 68.4779 17.0829 68.8053 18.1883C69.1499 19.2938 69.3222 20.3215 69.3222 21.2715V30.3916ZM62.602 21.3234C62.602 20.3906 62.3693 19.6997 61.9041 19.2506C61.4388 18.8015 60.7668 18.577 59.888 18.577H47.8173C46.9213 18.577 46.2407 18.8102 45.7754 19.2765C45.3102 19.7256 45.0775 20.3906 45.0775 21.2715V30.3916C45.0775 31.2725 45.3102 31.9462 45.7754 32.4126C46.2407 32.8789 46.9213 33.1121 47.8173 33.1121H59.888C60.8013 33.1121 61.4819 32.8789 61.9299 32.4126C62.3779 31.9462 62.602 31.2725 62.602 30.3916V21.3234Z" fill="#29ABE2"/>
<path d="M105.715 30.3916C105.715 31.5489 105.569 32.5939 105.276 33.5267C104.983 34.4421 104.595 35.2539 104.113 35.9621C103.63 36.653 103.07 37.249 102.433 37.7499C101.795 38.2335 101.123 38.6308 100.416 38.9417C99.7272 39.2526 99.0207 39.4858 98.297 39.6413C97.5905 39.7794 96.9184 39.8485 96.2809 39.8485H84.1585C83.004 39.8485 81.9701 39.7017 81.0569 39.4081C80.1436 39.1144 79.3337 38.7258 78.6272 38.2422C77.938 37.7412 77.3435 37.1712 76.8438 36.5321C76.3613 35.893 75.965 35.228 75.6548 34.5371C75.3446 33.8289 75.112 33.1207 74.9569 32.4126C74.8191 31.6871 74.7501 31.0135 74.7501 30.3916V21.2715C74.7501 19.5443 75.0603 18.0847 75.6806 16.8929C76.3182 15.6838 77.1022 14.7079 78.0327 13.9651C78.9805 13.2051 80.0057 12.661 81.1086 12.3328C82.2114 12.0047 83.228 11.8406 84.1585 11.8406H92.9127C94.7729 11.8406 96.2809 13.3486 96.2809 15.2088V15.2088C96.2809 17.069 94.7729 18.577 92.9127 18.577H84.2102C83.3142 18.577 82.6335 18.8102 82.1683 19.2765C81.703 19.7256 81.4704 20.3906 81.4704 21.2715V30.3398C81.4704 31.2553 81.6944 31.9462 82.1424 32.4126C82.6077 32.8789 83.2797 33.1121 84.1585 33.1121H96.2809C97.1941 33.1121 97.8748 32.8789 98.3228 32.4126C98.7708 31.9462 98.9948 31.2725 98.9948 30.3916V3.36014C98.9948 1.50439 100.499 0 102.355 0V0C104.211 0 105.715 1.50439 105.715 3.36014V30.3916Z" fill="#29ABE2"/>
<path d="M142.78 30.3916C142.78 31.5489 142.634 32.5939 142.341 33.5267C142.048 34.4421 141.66 35.2539 141.177 35.9621C140.695 36.653 140.135 37.249 139.497 37.7499C138.86 38.2335 138.188 38.6308 137.481 38.9417C136.792 39.2526 136.086 39.4858 135.362 39.6413C134.655 39.7794 133.983 39.8485 133.346 39.8485H121.223C120.069 39.8485 119.035 39.7017 118.122 39.4081C117.209 39.1144 116.399 38.7258 115.692 38.2422C115.003 37.7412 114.408 37.1712 113.909 36.5321C113.426 35.893 113.03 35.228 112.72 34.5371C112.41 33.8289 112.177 33.1207 112.022 32.4126C111.884 31.6871 111.815 31.0135 111.815 30.3916V21.2715C111.815 19.5443 112.125 18.0847 112.746 16.8929C113.383 15.6838 114.167 14.7079 115.098 13.9651C116.045 13.2051 117.071 12.661 118.173 12.3328C119.276 12.0047 120.293 11.8406 121.223 11.8406H129.978C131.838 11.8406 133.346 13.3486 133.346 15.2088V15.2088C133.346 17.069 131.838 18.577 129.978 18.577H121.275C120.379 18.577 119.698 18.8102 119.233 19.2765C118.768 19.7256 118.535 20.3906 118.535 21.2715V30.3398C118.535 31.2553 118.759 31.9462 119.207 32.4126C119.673 32.8789 120.345 33.1121 121.223 33.1121H133.346C134.259 33.1121 134.94 32.8789 135.388 32.4126C135.836 31.9462 136.06 31.2725 136.06 30.3916V3.36014C136.06 1.50439 137.564 0 139.42 0V0C141.276 0 142.78 1.50439 142.78 3.36014V30.3916Z" fill="#29ABE2"/>
<path d="M180 42.5431C180 43.7004 179.854 44.7368 179.561 45.6522C179.268 46.585 178.88 47.3968 178.397 48.0877C177.915 48.7959 177.355 49.3918 176.717 49.8754C176.08 50.3763 175.408 50.7823 174.701 51.0932C174.012 51.4041 173.314 51.6286 172.608 51.7668C171.901 51.9223 171.229 52 170.592 52H161.837C159.977 52 158.469 50.492 158.469 48.6318V48.6318C158.469 46.7716 159.977 45.2636 161.837 45.2636H170.592C171.488 45.2636 172.16 45.0304 172.608 44.564C173.056 44.0977 173.28 43.424 173.28 42.5431V15.2007C173.28 13.3449 174.784 11.8406 176.64 11.8406V11.8406C178.496 11.8406 180 13.3449 180 15.2007V42.5431ZM170.592 36.4803C170.592 38.3405 169.084 39.8485 167.223 39.8485H158.469C157.504 39.8485 156.47 39.6844 155.368 39.3563C154.282 39.0281 153.265 38.4926 152.318 37.7499C151.37 36.9899 150.586 36.014 149.966 34.8221C149.345 33.613 149.035 32.1362 149.035 30.3916V15.2007C149.035 13.3449 150.539 11.8406 152.395 11.8406V11.8406C154.251 11.8406 155.755 13.3449 155.755 15.2007V30.3916C155.755 31.2725 155.988 31.9462 156.453 32.4126C156.918 32.8789 157.608 33.1121 158.521 33.1121H167.223C169.084 33.1121 170.592 34.6201 170.592 36.4803V36.4803Z" fill="#29ABE2"/>
</svg>
